<svg id="Слой_1" data-name="Слой 1" xmlns="http://www.w3.org/2000/svg" xmlns:xlink="http://www.w3.org/1999/xlink" viewBox="0 0 1440 837"><defs><style>.cls-1{fill:#6e3dc8;}.cls-2{fill:#db6ab5;}.cls-10,.cls-12,.cls-3,.cls-7,.cls-8{fill:#fff;}.cls-3{opacity:0.07;}.cls-12,.cls-16,.cls-17,.cls-3,.cls-7,.cls-8{isolation:isolate;}.cls-4,.cls-8{opacity:0.3;}.cls-5{fill:url(#Безымянный_градиент_7);}.cls-6{fill:url(#Безымянный_градиент_7-2);}.cls-7{opacity:0.1;}.cls-12,.cls-9{opacity:0.15;}.cls-11{fill:url(#Безымянный_градиент_8);}.cls-13{fill:url(#Безымянный_градиент_7-3);}.cls-14{fill:url(#Безымянный_градиент_7-4);}.cls-15{fill:url(#Безымянный_градиент_8-2);}.cls-16{opacity:0.2;fill:url(#Безымянный_градиент_8-3);}.cls-17{opacity:0.15;fill:url(#linear-gradient);}.cls-18{fill:none;}</style><linearGradient id="Безымянный_градиент_7" x1="1203.63" y1="712.52" x2="1011.46" y2="379.58" gradientTransform="matrix(1, 0, 0, -1, 0, 1026)" gradientUnits="userSpaceOnUse"><stop offset="0" stop-color="#fff" stop-opacity="0"/><stop offset="1" stop-color="#fff"/></linearGradient><linearGradient id="Безымянный_градиент_7-2" x1="1279.76" y1="668.58" x2="1087.59" y2="335.64" xlink:href="#Безымянный_градиент_7"/><linearGradient id="Безымянный_градиент_8" x1="1119" y1="508.68" x2="1113.27" y2="498.76" gradientTransform="matrix(1, 0, 0, -1, 0, 1026)" gradientUnits="userSpaceOnUse"><stop offset="0" stop-color="#fff"/><stop offset="1" stop-color="#fff" stop-opacity="0"/></linearGradient><linearGradient id="Безымянный_градиент_7-3" x1="935.72" y1="659.76" x2="743.54" y2="326.82" xlink:href="#Безымянный_градиент_7"/><linearGradient id="Безымянный_градиент_7-4" x1="1011.84" y1="615.82" x2="819.67" y2="282.88" xlink:href="#Безымянный_градиент_7"/><linearGradient id="Безымянный_градиент_8-2" x1="858.46" y1="451.66" x2="852.74" y2="441.74" xlink:href="#Безымянный_градиент_8"/><linearGradient id="Безымянный_градиент_8-3" x1="893.72" y1="642.82" x2="867.67" y2="799.07" gradientTransform="matrix(1, 0, 0, 1, 0, 0)" xlink:href="#Безымянный_градиент_8"/><linearGradient id="linear-gradient" x1="1015.16" y1="742.83" x2="979.93" y2="891.43" gradientTransform="matrix(1, 0, 0, 1, 0, 0)" xlink:href="#Безымянный_градиент_8"/></defs><path class="cls-1" d="M1137.69,683.31c0-7.73-4.51-16.6-10.09-19.81s-10.09.43-10.09,8.15,4.51,16.6,10.09,19.82S1137.69,691,1137.69,683.31Z" transform="translate(0 -187.28)"/><path class="cls-2" d="M870.29,735.43c0-7.43-4.68-16.17-10.46-19.51s-10.47,0-10.47,7.43,4.68,16.17,10.47,19.51S870.29,742.87,870.29,735.43Z" transform="translate(0 -187.28)"/><path class="cls-3" d="M1073.19,187.28l178.92,103.27,0,351.69L1073.15,539Z" transform="translate(0 -187.28)"/><g class="cls-4"><path class="cls-5" d="M1038.28,217.52l178.91,103.27,0,351.69L1038.24,569.21Z" transform="translate(0 -187.28)"/><path class="cls-6" d="M1139.9,627.89l-12.15,9.93-12.24-24Z" transform="translate(0 -187.28)"/></g><path class="cls-7" d="M1193.8,430.43c0,11.26-1.6,21.49-4.71,30.1s-7.68,15.43-13.43,20.08a31.09,31.09,0,0,1-20.08,7c-7.51,0-15.56-2.45-23.69-7.14V394.69Z" transform="translate(0 -187.28)"/><path class="cls-8" d="M1131.89,480.47c-10.87-6.28-21.55-16.4-31-29.36a166.85,166.85,0,0,1-22.66-44.47C1072.85,390.46,1070,374,1070,359s2.86-28.2,8.3-38.1l53.61,73.83Z" transform="translate(0 -187.28)"/><path class="cls-1" d="M1193.8,430.43c0-18.89-4.49-39.84-12.79-59.6s-19.92-37.26-33.08-49.74-27.12-19.27-39.72-19.32-23.1,6.67-29.92,19.09l53.61,73.83Z" transform="translate(0 -187.28)"/><g class="cls-9"><path class="cls-10" d="M1061.63,484.21l109,62.92v13.22l-109-62.92Z" transform="translate(0 -187.28)"/><path class="cls-11" d="M1061.63,484.21l109,62.92v13.22l-109-62.92Z" transform="translate(0 -187.28)"/></g><path class="cls-12" d="M1061.62,510l132.17,76.28v13.22l-132.16-76.28Z" transform="translate(0 -187.28)"/><path class="cls-12" d="M1061.62,535.73l85.64,49.43v13.22L1061.62,549Z" transform="translate(0 -187.28)"/><path class="cls-3" d="M804.83,239.78,983.74,343.05l0,351.69L804.79,591.47Z" transform="translate(0 -187.28)"/><g class="cls-4"><path class="cls-13" d="M770.36,270.28,949.28,373.56l0,351.68L770.32,622Z" transform="translate(0 -187.28)"/><path class="cls-14" d="M872,680.65l-12.15,9.93-12.23-24Z" transform="translate(0 -187.28)"/></g><path class="cls-7" d="M925.89,483.19c0,15.05-2.87,28.19-8.3,38.1s-13.25,16.22-22.67,18.31L864,447.46Z" transform="translate(0 -187.28)"/><path class="cls-8" d="M894.92,539.6c-11.8,2.63-25.52-1.51-39-11.77s-26.06-26.08-35.69-45L864,447.46Z" transform="translate(0 -187.28)"/><path class="cls-2" d="M925.89,483.19a150.44,150.44,0,0,0-7.31-44.66A169.45,169.45,0,0,0,898.38,396c-8.46-12.72-18.19-23.16-28.32-30.39s-20.35-11-29.76-11.06a31.54,31.54,0,0,0-24.17,10.88c-6.46,7.18-10.88,17.57-12.86,30.26s-1.49,27.28,1.47,42.48a171.46,171.46,0,0,0,15.46,44.68L864,447.46Z" transform="translate(0 -187.28)"/><g class="cls-9"><path class="cls-10" d="M793.71,537l123.78,71.44v13.23L793.71,550.19Z" transform="translate(0 -187.28)"/><path class="cls-15" d="M793.71,537l123.78,71.44v13.23L793.71,550.19Z" transform="translate(0 -187.28)"/></g><path class="cls-12" d="M793.71,562.73l128.55,74.2v13.22L793.71,576Z" transform="translate(0 -187.28)"/><path class="cls-12" d="M793.7,588.49l85.65,49.43v13.22L793.7,601.71Z" transform="translate(0 -187.28)"/><path class="cls-16" d="M804.12,1024.27h514V946.41c-104.82-187.7-174.24-318.83-242.49-258.34C957.41,792.88,899.83,863.21,759.22,717.84c-83.34-86.15-135.4,84.45-248.94-14.17-94.64-82.21-107.91-4-114.26-2.76,0,0-2.85,18.92,0,87.8Z" transform="translate(0 -187.28)"/><path class="cls-17" d="M811.45,1024.27H1440V1012.5c-149.26-216.72-247.65-176.37-333-145.06-83.53,30.66-114.19-33.3-220-124.56-87-75.06-141.43,125.5-255,26.88-94.64-82.21-107.91-4-114.26-2.76,0,0-2.85,18.92,0,87.81Z" transform="translate(0 -187.28)"/><rect class="cls-18" y="324.72" width="107.81" height="107.81"/></svg>