<svg id="Слой_1" data-name="Слой 1" xmlns="http://www.w3.org/2000/svg" xmlns:xlink="http://www.w3.org/1999/xlink" viewBox="0 0 1069.93 877.39"><defs><style>.cls-1{fill:#6e3dc8;}.cls-2{fill:#db6ab5;}.cls-10,.cls-12,.cls-3,.cls-7,.cls-8{fill:#fff;}.cls-3{opacity:0.07;}.cls-12,.cls-16,.cls-17,.cls-3,.cls-7,.cls-8{isolation:isolate;}.cls-4{opacity:0.5;}.cls-5{fill:url(#Безымянный_градиент_7);}.cls-6{fill:url(#Безымянный_градиент_7-2);}.cls-7{opacity:0.1;}.cls-8{opacity:0.3;}.cls-12,.cls-9{opacity:0.15;}.cls-11{fill:url(#Безымянный_градиент_8);}.cls-13{fill:url(#Безымянный_градиент_7-3);}.cls-14{fill:url(#Безымянный_градиент_7-4);}.cls-15{fill:url(#Безымянный_градиент_8-2);}.cls-16,.cls-17{opacity:0.2;}.cls-16{fill:url(#linear-gradient);}.cls-17{fill:url(#linear-gradient-2);}</style><linearGradient id="Безымянный_градиент_7" x1="870.45" y1="917.17" x2="672.18" y2="573.66" gradientTransform="matrix(1, 0, 0, -1, 0, 1152)" gradientUnits="userSpaceOnUse"><stop offset="0" stop-color="#fff" stop-opacity="0"/><stop offset="1" stop-color="#fff"/></linearGradient><linearGradient id="Безымянный_градиент_7-2" x1="948.99" y1="871.83" x2="750.72" y2="528.33" xlink:href="#Безымянный_градиент_7"/><linearGradient id="Безымянный_градиент_8" x1="783.13" y1="706.86" x2="777.23" y2="696.63" gradientTransform="matrix(1, 0, 0, -1, 0, 1152)" gradientUnits="userSpaceOnUse"><stop offset="0" stop-color="#fff"/><stop offset="1" stop-color="#fff" stop-opacity="0"/></linearGradient><linearGradient id="Безымянный_градиент_7-3" x1="594.04" y1="862.73" x2="395.77" y2="519.23" xlink:href="#Безымянный_градиент_7"/><linearGradient id="Безымянный_градиент_7-4" x1="672.58" y1="817.4" x2="474.31" y2="473.9" xlink:href="#Безымянный_градиент_7"/><linearGradient id="Безымянный_градиент_8-2" x1="514.34" y1="648.03" x2="508.43" y2="637.8" xlink:href="#Безымянный_градиент_8"/><linearGradient id="linear-gradient" x1="556.46" y1="543.66" x2="484.46" y2="1003.24" gradientUnits="userSpaceOnUse"><stop offset="0" stop-color="#fff"/><stop offset="0.43" stop-color="#fff" stop-opacity="0"/></linearGradient><linearGradient id="linear-gradient-2" x1="672.92" y1="668.2" x2="631.56" y2="839.78" gradientTransform="matrix(1, 0, 0, 1, 0, 0)" xlink:href="#Безымянный_градиент_8"/></defs><path class="cls-1" d="M802.42,616.39c0-8-4.66-17.12-10.41-20.44s-10.41.45-10.42,8.42,4.67,17.12,10.42,20.44S802.42,624.36,802.42,616.39Z" transform="translate(-37.5 -104.63)"/><path class="cls-2" d="M526.54,670.17c0-7.67-4.83-16.69-10.8-20.13s-10.8,0-10.8,7.66,4.84,16.69,10.8,20.13S526.54,677.84,526.54,670.17Z" transform="translate(-37.5 -104.63)"/><path class="cls-3" d="M735.87,104.63l184.6,106.55L920.42,574,735.83,467.47Z" transform="translate(-37.5 -104.63)"/><g class="cls-4"><path class="cls-5" d="M699.85,135.84,884.44,242.38l0,362.84L699.81,498.68Z" transform="translate(-37.5 -104.63)"/><path class="cls-6" d="M804.7,559.22l-12.54,10.24L779.54,544.7Z" transform="translate(-37.5 -104.63)"/></g><path class="cls-7" d="M860.31,355.49c0,11.62-1.66,22.17-4.87,31.06s-7.91,15.92-13.84,20.72a32.23,32.23,0,0,1-20.73,7.22c-7.75,0-16-2.53-24.44-7.37v-88.5Z" transform="translate(-37.5 -104.63)"/><path class="cls-8" d="M796.43,407.12c-11.21-6.47-22.22-16.92-31.93-30.29A172.35,172.35,0,0,1,741.12,331c-5.6-16.69-8.55-33.66-8.55-49.19s3-29.09,8.56-39.31l55.31,76.17Z" transform="translate(-37.5 -104.63)"/><path class="cls-1" d="M860.31,355.49c0-19.48-4.64-41.1-13.19-61.49S826.56,255.57,813,242.69s-28-19.89-41-19.93-23.84,6.88-30.88,19.69l55.31,76.17Z" transform="translate(-37.5 -104.63)"/><g class="cls-9"><path class="cls-10" d="M723.94,411,836.42,475.9v13.64L723.94,424.62Z" transform="translate(-37.5 -104.63)"/><path class="cls-11" d="M723.94,411,836.42,475.9v13.64L723.94,424.62Z" transform="translate(-37.5 -104.63)"/></g><path class="cls-12" d="M723.94,437.55l136.35,78.71V529.9L723.94,451.19Z" transform="translate(-37.5 -104.63)"/><path class="cls-12" d="M723.94,464.13l88.35,51v13.64l-88.35-51Z" transform="translate(-37.5 -104.63)"/><path class="cls-3" d="M459,158.8,643.59,265.34l0,362.84L459,521.64Z" transform="translate(-37.5 -104.63)"/><g class="cls-4"><path class="cls-13" d="M423.44,190.27,608,296.82l0,362.84L423.4,553.11Z" transform="translate(-37.5 -104.63)"/><path class="cls-14" d="M528.28,613.65l-12.53,10.24-12.62-24.76Z" transform="translate(-37.5 -104.63)"/></g><path class="cls-7" d="M583.9,409.92c0,15.54-3,29.1-8.56,39.31S561.66,466,552,468.13L520,373.06Z" transform="translate(-37.5 -104.63)"/><path class="cls-8" d="M552,468.13c-12.17,2.71-26.33-1.56-40.27-12.15s-26.88-26.9-36.82-46.41L520,373.06Z" transform="translate(-37.5 -104.63)"/><path class="cls-2" d="M583.9,409.92a155.2,155.2,0,0,0-7.54-46.06A175.1,175.1,0,0,0,555.52,320c-8.73-13.13-18.77-23.9-29.22-31.35s-21-11.38-30.7-11.42a32.58,32.58,0,0,0-24.94,11.23c-6.66,7.41-11.22,18.13-13.27,31.22s-1.53,28.14,1.52,43.83a176.65,176.65,0,0,0,15.95,46.1L520,373.06Z" transform="translate(-37.5 -104.63)"/><g class="cls-9"><path class="cls-10" d="M447.53,465.41l127.71,73.71v13.64l-127.7-73.71Z" transform="translate(-37.5 -104.63)"/><path class="cls-15" d="M447.53,465.41l127.71,73.71v13.64l-127.7-73.71Z" transform="translate(-37.5 -104.63)"/></g><path class="cls-12" d="M447.53,492l132.63,76.55v13.64L447.52,505.63Z" transform="translate(-37.5 -104.63)"/><path class="cls-12" d="M447.52,518.56l88.36,51V583.2l-88.36-51Z" transform="translate(-37.5 -104.63)"/><path class="cls-16" d="M472.44,982H990.18V894.41C882,700.77,810.42,565.48,740,627.89,618,736,558.59,808.58,413.52,658.6c-86-88.88-139.69,87.13-256.83-14.62-97.64-84.81-111.34-4.09-117.89-2.84,0,0-2.93,19.51,0,90.58Z" transform="translate(-37.5 -104.63)"/><path class="cls-17" d="M471.53,975.44h635.89V956c-154-223.58-255.5-182-343.51-149.65C677.74,838,646.11,772,537,677.85c-89.75-77.44-145.92,129.48-263.06,27.73-97.64-84.81-111.33-4.08-117.88-2.84,0,0-2.94,19.52,0,90.59Z" transform="translate(-37.5 -104.63)"/></svg>