<svg width="93" height="24" viewBox="0 0 93 24" fill="none" xmlns="http://www.w3.org/2000/svg">
<path d="M8.456 19.288C6.056 19.288 4.184 18.624 2.84 17.296C1.512 15.968 0.848 14.072 0.848 11.608V2.2H4.736V11.464C4.736 14.472 5.984 15.976 8.48 15.976C9.696 15.976 10.624 15.616 11.264 14.896C11.904 14.16 12.224 13.016 12.224 11.464V2.2H16.064V11.608C16.064 14.072 15.392 15.968 14.048 17.296C12.72 18.624 10.856 19.288 8.456 19.288ZM27.3741 5.896C28.5741 5.896 29.6621 6.176 30.6381 6.736C31.6301 7.28 32.4061 8.056 32.9661 9.064C33.5261 10.056 33.8061 11.216 33.8061 12.544C33.8061 13.872 33.5261 15.04 32.9661 16.048C32.4061 17.04 31.6301 17.816 30.6381 18.376C29.6621 18.92 28.5741 19.192 27.3741 19.192C25.7261 19.192 24.4301 18.672 23.4861 17.632V23.656H19.7421V6.088H23.3181V7.576C24.2461 6.456 25.5981 5.896 27.3741 5.896ZM26.7261 16.12C27.6861 16.12 28.4701 15.8 29.0781 15.16C29.7021 14.504 30.0141 13.632 30.0141 12.544C30.0141 11.456 29.7021 10.592 29.0781 9.952C28.4701 9.296 27.6861 8.968 26.7261 8.968C25.7661 8.968 24.9741 9.296 24.3501 9.952C23.7421 10.592 23.4381 11.456 23.4381 12.544C23.4381 13.632 23.7421 14.504 24.3501 15.16C24.9741 15.8 25.7661 16.12 26.7261 16.12ZM40.7564 19.192C39.6844 19.192 38.6364 19.064 37.6124 18.808C36.5884 18.536 35.7724 18.2 35.1644 17.8L36.4124 15.112C36.9884 15.48 37.6844 15.784 38.5004 16.024C39.3164 16.248 40.1164 16.36 40.9004 16.36C42.4844 16.36 43.2764 15.968 43.2764 15.184C43.2764 14.816 43.0604 14.552 42.6284 14.392C42.1964 14.232 41.5324 14.096 40.6364 13.984C39.5804 13.824 38.7084 13.64 38.0204 13.432C37.3324 13.224 36.7324 12.856 36.2204 12.328C35.7244 11.8 35.4764 11.048 35.4764 10.072C35.4764 9.256 35.7084 8.536 36.1724 7.912C36.6524 7.272 37.3404 6.776 38.2364 6.424C39.1484 6.072 40.2204 5.896 41.4524 5.896C42.3644 5.896 43.2684 6 44.1644 6.208C45.0764 6.4 45.8284 6.672 46.4204 7.024L45.1724 9.688C44.0364 9.048 42.7964 8.728 41.4524 8.728C40.6524 8.728 40.0524 8.84 39.6524 9.064C39.2524 9.288 39.0524 9.576 39.0524 9.928C39.0524 10.328 39.2684 10.608 39.7004 10.768C40.1324 10.928 40.8204 11.08 41.7644 11.224C42.8204 11.4 43.6844 11.592 44.3564 11.8C45.0284 11.992 45.6124 12.352 46.1084 12.88C46.6044 13.408 46.8524 14.144 46.8524 15.088C46.8524 15.888 46.6124 16.6 46.1324 17.224C45.6524 17.848 44.9484 18.336 44.0204 18.688C43.1084 19.024 42.0204 19.192 40.7564 19.192Z" fill="url(#paint0_linear_41_2)"/>
<path d="M49.2624 6.088H53.0064V19H49.2624V6.088ZM51.1344 4.288C50.4464 4.288 49.8864 4.088 49.4544 3.688C49.0224 3.288 48.8064 2.792 48.8064 2.2C48.8064 1.608 49.0224 1.112 49.4544 0.711999C49.8864 0.311999 50.4464 0.111999 51.1344 0.111999C51.8224 0.111999 52.3824 0.303999 52.8144 0.688C53.2464 1.072 53.4624 1.552 53.4624 2.128C53.4624 2.752 53.2464 3.272 52.8144 3.688C52.3824 4.088 51.8224 4.288 51.1344 4.288ZM56.5811 1.192H60.3251V19H56.5811V1.192ZM70.0439 19.192C68.6839 19.192 67.4599 18.912 66.3719 18.352C65.2999 17.776 64.4599 16.984 63.8519 15.976C63.2439 14.968 62.9399 13.824 62.9399 12.544C62.9399 11.264 63.2439 10.12 63.8519 9.112C64.4599 8.104 65.2999 7.32 66.3719 6.76C67.4599 6.184 68.6839 5.896 70.0439 5.896C71.4039 5.896 72.6199 6.184 73.6919 6.76C74.7639 7.32 75.6039 8.104 76.2119 9.112C76.8199 10.12 77.1239 11.264 77.1239 12.544C77.1239 13.824 76.8199 14.968 76.2119 15.976C75.6039 16.984 74.7639 17.776 73.6919 18.352C72.6199 18.912 71.4039 19.192 70.0439 19.192ZM70.0439 16.12C71.0039 16.12 71.7879 15.8 72.3959 15.16C73.0199 14.504 73.3319 13.632 73.3319 12.544C73.3319 11.456 73.0199 10.592 72.3959 9.952C71.7879 9.296 71.0039 8.968 70.0439 8.968C69.0839 8.968 68.2919 9.296 67.6679 9.952C67.0439 10.592 66.7319 11.456 66.7319 12.544C66.7319 13.632 67.0439 14.504 67.6679 15.16C68.2919 15.8 69.0839 16.12 70.0439 16.12ZM87.5744 5.896C89.1744 5.896 90.4624 6.376 91.4384 7.336C92.4304 8.296 92.9264 9.72 92.9264 11.608V19H89.1824V12.184C89.1824 11.16 88.9584 10.4 88.5104 9.904C88.0624 9.392 87.4144 9.136 86.5664 9.136C85.6224 9.136 84.8704 9.432 84.3104 10.024C83.7504 10.6 83.4704 11.464 83.4704 12.616V19H79.7264V6.088H83.3024V7.6C83.7984 7.056 84.4144 6.64 85.1504 6.352C85.8864 6.048 86.6944 5.896 87.5744 5.896Z" fill="white"/>
<defs>
<linearGradient id="paint0_linear_41_2" x1="47" y1="11.5" x2="-1" y2="11.5" gradientUnits="userSpaceOnUse">
<stop stop-color="#DB6AB5"/>
<stop offset="1" stop-color="#6E3DC8"/>
</linearGradient>
</defs>
</svg>
